<svg width="70" height="81" viewBox="0 0 70 81" fill="none" xmlns="http://www.w3.org/2000/svg">
<path d="M-2.43187e-05 0.5H67.2C67.5151 0.5 67.8272 0.562078 68.1184 0.68269C68.4096 0.803301 68.6742 0.980083 68.897 1.20294C69.1199 1.4258 69.2967 1.69038 69.4173 1.98156C69.5379 2.27274 69.6 2.58483 69.6 2.9V77.748C69.6 78.0632 69.5379 78.3753 69.4173 78.6664C69.2967 78.9576 69.1199 79.2222 68.897 79.4451C68.6742 79.6679 68.4096 79.8447 68.1184 79.9653C67.8272 80.0859 67.5151 80.148 67.2 80.148H-2.43187e-05C-0.636544 80.148 -1.24699 79.8951 -1.69708 79.4451C-2.14717 78.995 -2.40002 78.3845 -2.40002 77.748V2.9C-2.40002 2.26348 -2.14717 1.65303 -1.69708 1.20294C-1.24699 0.752856 -0.636544 0.5 -2.43187e-05 0.5ZM14.4 13.244C14.1878 13.244 13.9843 13.3283 13.8343 13.4783C13.6843 13.6283 13.6 13.8318 13.6 14.044V43.444C13.6 43.6307 13.6586 43.7973 13.776 43.944C13.9081 44.11 14.1007 44.2168 14.3115 44.2408C14.5223 44.2648 14.7339 44.2041 14.9 44.072L51.812 14.672C51.9412 14.5684 52.035 14.4272 52.0805 14.2679C52.1261 14.1087 52.121 13.9392 52.0662 13.783C52.0113 13.6267 51.9093 13.4913 51.7742 13.3955C51.6391 13.2997 51.4776 13.2481 51.312 13.248L14.4 13.244ZM13.6 61.064C13.6 61.2293 13.6466 61.38 13.74 61.516C13.8599 61.691 14.0444 61.8113 14.2529 61.8503C14.4614 61.8893 14.6769 61.8439 14.852 61.724L45.156 40.988C45.2969 40.8915 45.4032 40.7523 45.4594 40.591C45.5156 40.4297 45.5186 40.2546 45.4681 40.0914C45.4176 39.9282 45.3161 39.7855 45.1786 39.6841C45.0411 39.5827 44.8748 39.528 44.704 39.528H25.16C24.9818 39.5277 24.8087 39.5868 24.668 39.696L13.908 48.104C13.8119 48.1789 13.7342 48.2748 13.6808 48.3844C13.6274 48.4939 13.5998 48.6142 13.6 48.736V61.064ZM13.944 65.692C13.838 65.7655 13.7514 65.8636 13.6915 65.9778C13.6316 66.092 13.6002 66.219 13.6 66.348V66.696C13.6 67.12 13.944 67.464 14.368 67.464H25.6C25.8121 67.464 26.0156 67.3797 26.1657 67.2297C26.3157 67.0797 26.4 66.8762 26.4 66.664V58.576C26.3997 58.4301 26.3596 58.287 26.2838 58.1622C26.2081 58.0374 26.0997 57.9358 25.9703 57.8682C25.841 57.8006 25.6956 57.7698 25.5499 57.7789C25.4043 57.788 25.2639 57.8368 25.144 57.92L13.944 65.692Z" fill="#85D0FF"/>
</svg>
